HIERARCHY
ROOT Hips
{
	OFFSET -0.001795 -0.223333 0.028219
	CHANNELS 6 Xposition Yposition Zposition Zrotation Yrotation Xrotation 
	JOINT LeftUpLeg
	{
		OFFSET 0.069520 -0.091406 -0.006815
		CHANNELS 3 Zrotation Yrotation Xrotation
		JOINT LeftLeg
		{
			OFFSET 0.034277 -0.375199 -0.004496
			CHANNELS 3 Zrotation Yrotation Xrotation
			JOINT LeftFoot
			{
				OFFSET -0.013596 -0.397961 -0.043693
				CHANNELS 3 Zrotation Yrotation Xrotation
				JOINT LeftToe
				{
					OFFSET 0.026358 -0.055791 0.119288
					CHANNELS 3 Zrotation Yrotation Xrotation
					End Site
					{
						OFFSET 0.000000 0.000000 0.000000
					}
				}
			}
		}
	}
	JOINT RightUpLeg
	{
		OFFSET -0.067670 -0.090522 -0.004320
		CHANNELS 3 Zrotation Yrotation Xrotation
		JOINT RightLeg
		{
			OFFSET -0.038290 -0.382569 -0.008850
			CHANNELS 3 Zrotation Yrotation Xrotation
			JOINT RightFoot
			{
				OFFSET 0.015774 -0.398415 -0.042312
				CHANNELS 3 Zrotation Yrotation Xrotation
				JOINT RightToe
				{
					OFFSET -0.025372 -0.048144 0.123348
					CHANNELS 3 Zrotation Yrotation Xrotation
					End Site
					{
						OFFSET 0.000000 0.000000 0.000000
					}
				}
			}
		}
	}
	JOINT Spine
	{
		OFFSET -0.002533 0.108963 -0.026696
		CHANNELS 3 Zrotation Yrotation Xrotation
		JOINT Spine1
		{
			OFFSET 0.005487 0.135180 0.001092
			CHANNELS 3 Zrotation Yrotation Xrotation
			JOINT Spine2
			{
				OFFSET 0.001457 0.052922 0.025425
				CHANNELS 3 Zrotation Yrotation Xrotation
				JOINT Neck
				{
					OFFSET -0.002778 0.213870 -0.042857
					CHANNELS 3 Zrotation Yrotation Xrotation
					JOINT Head
					{
						OFFSET 0.005152 0.064970 0.051349
						CHANNELS 3 Zrotation Yrotation Xrotation
						End Site
						{
							OFFSET 0.000000 0.000000 0.000000
						}
					}
				}
				JOINT LeftShoulder
				{
					OFFSET 0.078845 0.121749 -0.034090
					CHANNELS 3 Zrotation Yrotation Xrotation
					JOINT LeftArm
					{
						OFFSET 0.090977 0.030469 -0.008868
						CHANNELS 3 Zrotation Yrotation Xrotation
						JOINT LeftForeArm
						{
							OFFSET 0.259612 -0.012772 -0.027456
							CHANNELS 3 Zrotation Yrotation Xrotation
							JOINT LeftHand
							{
								OFFSET 0.249234 0.008986 -0.001171
								CHANNELS 3 Zrotation Yrotation Xrotation
								End Site
								{
									OFFSET 0.000000 0.000000 0.000000
								}
							}
						}
					}
				}
				JOINT RightShoulder
				{
					OFFSET -0.081759 0.118833 -0.038615
					CHANNELS 3 Zrotation Yrotation Xrotation
					JOINT RightArm
					{
						OFFSET -0.096012 0.032551 -0.009143
						CHANNELS 3 Zrotation Yrotation Xrotation
						JOINT RightForeArm
						{
							OFFSET -0.253742 -0.013329 -0.021401
							CHANNELS 3 Zrotation Yrotation Xrotation
							JOINT RightHand
							{
								OFFSET -0.255298 0.007772 -0.005559
								CHANNELS 3 Zrotation Yrotation Xrotation
								End Site
								{
									OFFSET 0.000000 0.000000 0.000000
								}
							}
						}
					}
				}
			}
		}
	}
}
MOTION
Frames: 18
Frame Time: 0.050000
0.000000 0.935950 0.000000 0.499888 -4.649453 4.933510 1.571066 -1.344068 -18.513955 -5.336435 1.004549 15.578448 5.211344 11.245721 1.705084 0.000000 0.000000 0.000000 0.092102 0.694640 -6.975139 0.923958 0.218242 8.234144 -3.157617 -6.970376 -2.275753 0.000000 0.000000 0.000000 4.870122 -0.681009 6.941546 -2.385795 1.067694 -6.048185 -1.579603 5.109441 10.658748 7.248482 -3.286921 -15.055461 0.000000 0.000000 0.000000 -15.132323 -2.227973 -0.706590 -57.230797 -15.673360 0.152586 -6.333947 -27.909514 2.617166 0.000000 0.000000 0.000000 11.592742 -4.121842 -2.463559 56.338153 10.675188 -0.963851 7.144592 32.067840 3.437948 0.000000 0.000000 0.000000 
0.000125 0.934838 0.000898 0.031021 -4.117941 5.973634 2.099878 -1.350494 -19.652282 -5.633926 1.053886 15.531328 5.209568 11.169891 1.124843 0.000000 0.000000 0.000000 0.253938 0.740209 -7.377839 1.305847 0.115711 7.327768 -3.469689 -7.799128 -2.344065 0.000000 0.000000 0.000000 5.884212 -0.797541 7.006089 -1.903047 0.876357 -5.323516 -2.739811 5.654114 9.710854 7.754850 -3.565619 -14.499198 0.000000 0.000000 0.000000 -15.048716 -2.609364 -0.756725 -57.720894 -16.146527 0.507235 -5.637675 -28.190537 2.381008 0.000000 0.000000 0.000000 11.004637 -4.799421 -2.607106 57.688488 10.452235 -0.864610 6.927347 32.776009 3.559268 0.000000 0.000000 0.000000 
0.000691 0.935161 0.003745 0.514126 -5.296854 5.731291 1.059581 -1.447056 -19.173361 -5.055081 0.911488 14.088524 4.988568 10.825756 1.869756 0.000000 0.000000 0.000000 -0.432886 0.768806 -7.805045 1.533343 0.167711 9.372996 -3.600529 -7.859632 -2.852296 0.000000 0.000000 0.000000 5.805689 -0.863896 8.019819 -2.710381 1.180090 -6.721179 -2.381545 5.431577 11.009666 7.404585 -3.692553 -13.204165 0.000000 0.000000 0.000000 -15.222340 -3.214224 -0.231073 -57.528447 -17.027344 0.807085 -4.575111 -27.393387 2.148849 0.000000 0.000000 0.000000 11.929549 -4.210231 -2.522867 56.614449 10.978438 -0.846370 7.791426 33.791893 3.870417 0.000000 0.000000 0.000000 
0.001708 0.934505 0.008758 0.231699 -6.023540 6.338298 0.973988 -1.439823 -19.213659 -4.745323 0.804083 12.062105 4.445676 9.891218 2.853973 0.000000 0.000000 0.000000 -0.382608 0.890751 -8.975760 1.332995 0.263858 10.559945 -3.730908 -8.387641 -2.327593 0.000000 0.000000 0.000000 5.672706 -0.861572 8.064555 -2.413727 1.052805 -6.372371 -2.152996 5.514346 10.484036 7.327594 -3.705151 -12.864980 0.000000 0.000000 0.000000 -14.427238 -2.212731 -0.597719 -59.601778 -18.709255 1.845878 -3.508967 -25.894909 1.802607 0.000000 0.000000 0.000000 10.608413 -4.874329 -2.761756 57.141958 11.515831 -0.470279 8.327916 34.521693 4.085258 0.000000 0.000000 0.000000 
0.003172 0.933554 0.015912 0.139207 -7.694061 6.198571 -0.012790 -1.477845 -18.241476 -4.030295 0.642641 10.043658 4.715063 10.551903 4.273812 0.000000 0.000000 0.000000 -0.611238 0.918112 -9.284527 0.754040 0.468133 11.897460 -3.093936 -6.607856 -2.396934 0.000000 0.000000 0.000000 5.375445 -0.853167 8.536354 -2.309938 0.982049 -6.652381 -1.878631 5.388647 11.104031 7.284722 -3.658369 -13.711121 0.000000 0.000000 0.000000 -13.124078 -2.225715 -0.246997 -60.707947 -19.399287 2.249549 -2.979590 -25.654290 1.743900 0.000000 0.000000 0.000000 10.496400 -4.752011 -2.819539 57.299392 11.979589 -0.359604 9.069262 36.658160 4.520488 0.000000 0.000000 0.000000 
0.004826 0.932110 0.025096 -0.027346 -8.628005 6.169420 -0.415189 -1.454314 -17.367646 -3.317458 0.487072 8.694161 4.768999 10.665773 4.703913 0.000000 0.000000 0.000000 -0.750694 0.999808 -10.090989 0.590227 0.659806 14.244269 -2.919733 -5.541531 -3.484572 0.000000 0.000000 0.000000 5.320916 -0.838593 8.516357 -2.242646 0.941067 -6.609639 -1.965401 4.831645 11.502240 7.048566 -3.748273 -12.874091 0.000000 0.000000 0.000000 -12.040825 -2.594217 0.200961 -61.769828 -20.405276 2.909208 -1.330866 -24.512101 1.372676 0.000000 0.000000 0.000000 10.508844 -4.418628 -2.796467 57.956150 11.963923 -0.446234 9.166944 38.535381 4.708953 0.000000 0.000000 0.000000 
0.006286 0.930767 0.034900 -0.243642 -9.469870 6.083933 -0.560143 -1.395494 -16.489149 -3.115376 0.455712 8.185207 4.842168 10.731625 4.333884 0.000000 0.000000 0.000000 -1.362192 1.167588 -11.885949 1.134804 0.805588 17.956881 -2.860663 -5.384557 -3.444825 0.000000 0.000000 0.000000 5.196329 -0.832807 8.721613 -2.067064 0.858397 -6.489148 -1.969776 3.951316 11.648422 6.866482 -3.802668 -12.601404 0.000000 0.000000 0.000000 -11.717580 -3.132203 0.694385 -61.709990 -21.170313 3.400252 -1.064035 -24.275239 1.366641 0.000000 0.000000 0.000000 10.986970 -4.008529 -2.847008 58.430890 11.300080 -0.856761 10.449016 39.374478 5.092841 0.000000 0.000000 0.000000 
0.007199 0.929158 0.043874 -0.522254 -10.229322 5.948989 -0.232698 -1.312998 -16.122304 -3.094592 0.474584 8.629916 5.121338 11.185317 3.732691 0.000000 0.000000 0.000000 -1.878139 1.370017 -14.016019 1.985546 0.887502 21.822504 -3.129282 -6.078042 -3.504422 0.000000 0.000000 0.000000 5.238526 -0.846281 8.985244 -1.970493 0.809340 -6.422821 -2.154720 3.242171 12.282986 6.723082 -3.821714 -12.704401 0.000000 0.000000 0.000000 -10.802794 -4.170348 1.390010 -61.426551 -22.385105 4.077554 -0.388804 -25.048374 1.327626 0.000000 0.000000 0.000000 11.684906 -3.279507 -2.762002 59.281876 11.116550 -1.066826 10.570987 38.757530 4.915387 0.000000 0.000000 0.000000 
0.007202 0.927701 0.051168 -0.874173 -10.280627 5.806210 0.273705 -1.227790 -15.848032 -3.592049 0.601850 9.498567 5.391736 11.652452 2.942855 0.000000 0.000000 0.000000 -2.162287 1.564092 -16.008920 3.205337 0.793360 25.662449 -3.240194 -6.433180 -3.513942 0.000000 0.000000 0.000000 5.342147 -0.883647 9.410027 -1.992784 0.822295 -6.100879 -2.011151 2.546327 12.116288 6.558633 -3.786736 -12.634172 0.000000 0.000000 0.000000 -10.487832 -5.077728 1.913237 -60.996563 -23.709030 4.837214 0.567154 -25.881920 1.195355 0.000000 0.000000 0.000000 11.823778 -2.919845 -2.727002 60.242210 10.593273 -1.355267 10.863521 37.239544 4.697885 0.000000 0.000000 0.000000 
0.006224 0.927532 0.057026 -1.175665 -10.349175 6.063127 0.617122 -1.187504 -15.975653 -4.034778 0.730840 10.488490 5.739151 12.271538 1.790599 0.000000 0.000000 0.000000 -2.173107 1.834003 -18.413503 3.620902 0.838487 28.310275 -3.548844 -7.103628 -3.959128 0.000000 0.000000 0.000000 5.528415 -0.912831 9.491676 -1.815360 0.744683 -6.393141 -2.138998 1.966729 12.798472 6.371866 -3.585917 -13.848046 0.000000 0.000000 0.000000 -9.956896 -5.223502 2.083880 -60.832182 -25.126928 5.619204 1.135700 -27.785517 1.221105 0.000000 0.000000 0.000000 11.868097 -2.364935 -2.567898 61.216816 10.892983 -1.314293 10.284510 35.851885 4.273918 0.000000 0.000000 0.000000 
0.004330 0.928148 0.062262 -1.450077 -9.856066 6.028272 0.975413 -1.133570 -15.681471 -3.987757 0.717257 10.851192 5.687614 12.160822 1.556482 0.000000 0.000000 0.000000 -2.138889 1.948062 -19.474599 3.545451 0.817185 28.347546 -3.624852 -7.427776 -3.833167 0.000000 0.000000 0.000000 5.818901 -0.972781 9.830463 -1.578651 0.657673 -6.240538 -2.274449 1.578900 12.615579 6.251806 -3.488939 -14.012182 0.000000 0.000000 0.000000 -9.250386 -6.095386 2.468348 -60.939228 -26.261787 6.340496 1.612720 -29.377174 1.187940 0.000000 0.000000 0.000000 11.640634 -2.080771 -2.416901 62.772845 11.552230 -0.965404 8.999241 33.416100 3.585006 0.000000 0.000000 0.000000 
0.001390 0.929069 0.067030 -1.589391 -9.272975 6.514941 1.242132 -1.104544 -15.560495 -4.169328 0.739149 10.744947 5.688421 12.140645 1.089958 0.000000 0.000000 0.000000 -1.943036 1.970639 -19.584234 2.792125 0.862381 26.014463 -3.576283 -7.238060 -3.998518 0.000000 0.000000 0.000000 6.041979 -1.002202 9.678335 -1.532173 0.647154 -6.199669 -2.387652 1.301910 12.459040 6.392362 -3.542337 -14.187429 0.000000 0.000000 0.000000 -8.516551 -6.426360 2.584025 -61.899406 -27.266581 7.174346 2.042388 -30.568583 1.132213 0.000000 0.000000 0.000000 10.900376 -1.739781 -2.146354 64.384681 12.454861 -0.454357 8.876549 32.535457 3.459135 0.000000 0.000000 0.000000 
-0.002443 0.929918 0.070823 -1.435888 -8.655772 6.696350 1.293544 -1.100699 -15.373198 -4.086492 0.702447 10.744564 5.567042 11.886435 0.934745 0.000000 0.000000 0.000000 -2.187704 1.829350 -18.702599 2.108885 0.815680 22.745754 -3.461441 -7.648331 -2.522105 0.000000 0.000000 0.000000 6.081429 -1.004652 9.525037 -1.515851 0.649848 -6.198465 -2.543114 1.557377 12.470794 6.211006 -3.292569 -14.729703 0.000000 0.000000 0.000000 -7.704452 -6.947292 2.713318 -62.480310 -28.155663 7.793509 1.345852 -32.070368 1.360084 0.000000 0.000000 0.000000 10.181844 -0.972500 -1.616646 65.350056 14.083898 0.538922 8.466825 32.149828 3.370797 0.000000 0.000000 0.000000 
-0.006974 0.929493 0.072780 -1.331258 -8.204923 6.917542 1.523800 -1.100466 -15.709956 -3.944843 0.672471 11.341411 5.458602 11.656093 0.853666 0.000000 0.000000 0.000000 -2.234267 1.764702 -18.241496 1.169313 0.911594 20.547386 -3.332521 -7.896954 -1.253911 0.000000 0.000000 0.000000 6.045976 -1.052507 10.050863 -1.510269 0.653296 -6.342018 -2.829956 2.467154 12.262384 6.969279 -3.639307 -14.782832 0.000000 0.000000 0.000000 -6.045950 -7.733915 2.867454 -64.057640 -29.665385 8.990060 1.076296 -33.072793 1.395124 0.000000 0.000000 0.000000 9.239171 0.080763 -0.884399 66.434297 15.933889 1.820361 9.119559 32.409677 3.700545 0.000000 0.000000 0.000000 
-0.011908 0.929089 0.071537 -1.003762 -7.613218 7.156352 1.830137 -1.104037 -16.222869 -4.238093 0.736929 11.911867 5.385213 11.476283 0.589009 0.000000 0.000000 0.000000 -2.206519 1.723993 -17.955346 0.627973 0.928296 19.060357 -3.401966 -8.300557 -0.749204 0.000000 0.000000 0.000000 5.810710 -1.086204 10.671773 -1.739468 0.753616 -6.458753 -2.846826 3.344017 12.604603 7.302236 -3.663338 -15.274545 0.000000 0.000000 0.000000 -5.060075 -8.536535 3.067691 -65.144908 -31.314420 10.097241 0.040278 -34.042595 1.673669 0.000000 0.000000 0.000000 8.550011 1.779019 0.070751 67.097389 18.835786 3.751588 9.200901 33.530281 4.007029 0.000000 0.000000 0.000000 
-0.016513 0.928011 0.066047 -0.766384 -6.772399 8.016576 2.098080 -1.151157 -17.363188 -3.934967 0.642511 12.068747 4.930642 10.531384 0.533013 0.000000 0.000000 0.000000 -2.082962 1.818748 -18.895308 0.138472 0.969400 18.320499 -3.680295 -9.098835 -0.597599 0.000000 0.000000 0.000000 5.644621 -1.188098 11.901663 -1.656000 0.732301 -6.410847 -3.114528 4.811119 12.438323 8.529646 -4.206750 -15.406782 0.000000 0.000000 0.000000 -4.425098 -10.028000 3.482674 -66.258796 -33.234114 11.313852 -0.217854 -34.465824 1.626621 0.000000 0.000000 0.000000 7.726427 3.779664 1.209014 67.775238 22.512671 6.465638 7.901714 34.812288 3.987053 0.000000 0.000000 0.000000 
-0.020423 0.927291 0.056561 -0.500312 -6.154728 9.035749 2.388465 -1.238990 -19.527119 -3.792943 0.607256 13.007346 4.546684 9.810830 0.985295 0.000000 0.000000 0.000000 -2.298375 1.919105 -20.233251 0.460780 0.852575 18.197248 -3.902711 -9.729344 -0.522651 0.000000 0.000000 0.000000 5.501767 -1.328259 13.636081 -1.549488 0.697710 -7.006317 -3.101662 6.144021 13.036584 10.057525 -4.905776 -16.046636 0.000000 0.000000 0.000000 -4.326367 -11.608575 3.970505 -66.450328 -36.507857 13.192810 -0.940171 -33.246777 1.677547 0.000000 0.000000 0.000000 6.313403 5.781260 2.259938 69.310533 27.528405 10.351727 6.367788 35.627437 3.787241 0.000000 0.000000 0.000000 
-0.023049 0.926349 0.044527 -0.466698 -5.264383 10.275737 2.872392 -1.292187 -21.521383 -3.439561 0.488814 12.757046 3.936398 8.792174 2.101534 0.000000 0.000000 0.000000 -2.683084 2.046543 -22.240068 1.305664 0.595737 18.155700 -4.488978 -11.386920 -0.115763 0.000000 0.000000 0.000000 5.540703 -1.508870 15.351285 -1.371101 0.640504 -7.254021 -3.011225 7.259644 13.081160 11.415377 -5.627407 -15.931948 0.000000 0.000000 0.000000 -3.645184 -13.774286 4.670726 -66.740265 -39.655766 15.098647 -1.204792 -31.827244 1.587635 0.000000 0.000000 0.000000 4.881663 7.290990 3.001187 70.331804 32.243795 14.323912 5.330251 36.535528 3.687892 0.000000 0.000000 0.000000 
